<svg width="208" height="23" viewBox="0 0 208 23" fill="none" xmlns="http://www.w3.org/2000/svg">
<path d="M81.4462 18.702H81.1462V19.077H82.9212V19.577H81.1962V19.827H82.7962V20.327H82.0212V20.452H79.8962V20.952H76.8712V21.327H80.9712V21.827H76.4212V22.002C76.4212 22.1187 76.3962 22.227 76.3462 22.327H79.2462C79.1962 22.4437 79.1129 22.527 78.9962 22.577H80.3462C80.2629 22.6437 80.1462 22.677 79.9962 22.677H75.0962C74.9462 22.677 74.8295 22.6437 74.7462 22.577H73.3962C73.3129 22.527 73.2379 22.4437 73.1712 22.327H70.2462C70.1962 22.227 70.1712 22.1187 70.1712 22.002V21.827H74.7212V21.327H70.6212V20.952H73.6462V20.452H75.7712V20.327H76.5462V19.827H74.9462V19.577H76.6712V19.177H69.6712V19.202H68.4962V19.577H66.3962V19.827H66.5212V20.327H67.3712V20.452H67.0212V20.952H63.3462V21.327H66.3462V21.827H68.8962V22.002C68.8962 22.0687 68.8879 22.127 68.8712 22.177C68.8545 22.227 68.8295 22.277 68.7962 22.327H67.4212C67.3545 22.4437 67.2795 22.527 67.1962 22.577H66.7712C66.6879 22.6437 66.5712 22.677 66.4212 22.677H61.5212C61.3545 22.677 61.2295 22.6437 61.1462 22.577H61.5712C61.4879 22.527 61.4129 22.4437 61.3462 22.327H62.7212C62.6712 22.227 62.6462 22.1187 62.6462 22.002V21.827H60.0962V21.327H57.0962V20.952H60.7712V20.452H61.1212V20.327H60.2712V19.827H60.1462V19.577H62.2462V19.202H63.4212V19.077H61.6462V18.702H61.9462V18.327H65.2212V17.827H65.0212V17.327H61.6212V17.202H61.8212V16.827H61.2462V16.327H60.3462V16.077H61.1462V15.827H61.1212V15.702H61.0712V15.327H61.1212V14.827H61.0962V14.452H61.1462V14.202H61.3462C61.3795 14.0853 61.4212 14.002 61.4712 13.952H60.6212C60.6545 13.902 60.6962 13.8603 60.7462 13.827H59.4212C59.5212 13.727 59.6629 13.677 59.8462 13.677H60.2212C60.5045 13.677 60.7629 13.5603 60.9962 13.327H62.4962C62.5295 13.2937 62.5629 13.2603 62.5962 13.227C62.6295 13.177 62.6629 13.127 62.6962 13.077H63.9212C63.9545 13.0437 63.9795 13.0103 63.9962 12.977C64.0295 12.927 64.0545 12.877 64.0712 12.827H64.1962C64.2795 12.6437 64.3462 12.477 64.3962 12.327H62.3712C62.3879 12.2603 62.4045 12.202 62.4212 12.152C62.4379 12.0853 62.4545 12.0187 62.4712 11.952H63.3212C63.3212 11.9187 63.3212 11.8937 63.3212 11.877C63.3379 11.8603 63.3462 11.8437 63.3462 11.827H62.6462C62.6462 11.7937 62.6462 11.7687 62.6462 11.752C62.6629 11.7353 62.6712 11.7187 62.6712 11.702H62.4212C62.4545 11.602 62.4712 11.5187 62.4712 11.452H63.6962C63.7295 11.3687 63.7462 11.2853 63.7462 11.202C63.7629 11.1187 63.7795 11.0353 63.7962 10.952H63.9462C63.9629 10.8853 63.9712 10.827 63.9712 10.777C63.9879 10.7103 63.9962 10.6437 63.9962 10.577H63.7962C63.8129 10.4937 63.8212 10.4103 63.8212 10.327C63.8379 10.2437 63.8462 10.1603 63.8462 10.077H64.4962C64.4962 10.0103 64.4962 9.952 64.4962 9.902C64.5129 9.83534 64.5212 9.76867 64.5212 9.702H63.9712V9.577H63.3962C63.3962 9.49367 63.3962 9.41034 63.3962 9.327C63.4129 9.24367 63.4212 9.16034 63.4212 9.077H64.0462V8.952H63.2962V8.827H64.1712C64.1712 8.777 64.1795 8.73534 64.1962 8.702H62.9712V8.327H63.7212V8.077H65.2212V7.577H63.4962V7.327H63.7712V7.077H67.4962V6.827H61.4962V6.327H62.4212V6.202H66.8712V5.952H68.3962V5.577H62.9712V5.452H65.3212V5.202H63.8462V4.702H64.3962V4.327H64.5962V3.827H64.6962V3.452H64.1712V3.202H64.1462V3.077H63.6712V2.952H64.0212V2.827H64.5462V2.577H64.4462V2.352C64.4462 2.31867 64.4462 2.29367 64.4462 2.277C64.4629 2.24367 64.4712 2.21867 64.4712 2.202H64.3712C64.3879 2.11867 64.4129 2.052 64.4462 2.002C64.4962 1.93534 64.5462 1.877 64.5962 1.827H64.4212C64.5212 1.727 64.6629 1.677 64.8462 1.677H78.2962C78.4629 1.677 78.6045 1.727 78.7212 1.827H78.8962C79.0129 1.91034 79.0962 2.03534 79.1462 2.202H79.2462V2.577H79.3462V2.827H78.8212V2.952H78.4712V3.077H78.9462V3.202H78.9712V3.452H79.4962V3.827H79.3962V4.327H79.1962V4.702H78.6462V5.202H80.1212V5.452H77.7712V5.577H83.1962V5.952H81.6712V6.202H77.2212V6.327H76.2962V6.827H82.2962V7.077H78.5712V7.327H79.9212V7.577H80.7462V8.077H78.8212V8.327H76.9962V8.702H79.2212V8.827H77.3212V8.952H78.3962V9.077H78.5712V9.577H78.8212V9.702H79.3462V10.077H78.8712V10.577H78.8212V11.452H78.1462V11.702H78.6962V11.827H80.0962V11.952H76.8712V12.327H76.7212V12.827H75.4212V13.077H76.7712V13.327H76.8712V13.677H77.9962C78.1629 13.677 78.3045 13.727 78.4212 13.827H79.7462C79.7795 13.8437 79.8045 13.8603 79.8212 13.877C79.8379 13.8937 79.8545 13.9187 79.8712 13.952H80.6962C80.7629 14.052 80.8045 14.1353 80.8212 14.202H80.6212C80.6212 14.2187 80.6212 14.2437 80.6212 14.277C80.6379 14.2937 80.6462 14.3187 80.6462 14.352V14.452H80.5962V14.827H80.6212V15.327H80.5712V15.702H80.6212V15.827H80.6462V16.077H79.8462V16.327H80.7462V16.827H81.3212V17.202H81.1212V17.327H84.5212V17.827H84.7212V18.327H81.4462V18.702ZM68.5962 11.952L68.5212 12.327H70.6212V11.952H73.8462V11.827H72.4462V11.702H71.8962V11.452H72.5712V10.577H72.6212V10.077H73.0962V9.702H72.5712V9.577H72.3212V9.077H72.1462V8.952H71.0712V8.827H72.9712V8.702H70.7462V8.327H72.5712V8.077H74.4962V7.577H73.6712V7.327H72.3212V7.177H69.7712V7.327H69.4962V7.577H71.2212V8.077H69.7212V8.327H68.9712V8.702H70.1962V8.827H69.3212C69.3212 8.84367 69.3129 8.86034 69.2962 8.877C69.2962 8.89367 69.2962 8.91867 69.2962 8.952H70.0712V9.077H69.4462C69.4462 9.16034 69.4379 9.24367 69.4212 9.327C69.4212 9.41034 69.4212 9.49367 69.4212 9.577H69.9962V9.702H70.5462C70.5462 9.76867 70.5462 9.83534 70.5462 9.902C70.5462 9.952 70.5379 10.0103 70.5212 10.077H69.8962L69.8462 10.577H70.0462C70.0462 10.6437 70.0379 10.7103 70.0212 10.777C70.0212 10.827 70.0212 10.8853 70.0212 10.952H69.8462C69.8295 11.0353 69.8212 11.1187 69.8212 11.202C69.8212 11.2853 69.8129 11.3687 69.7962 11.452H68.5712C68.5545 11.4853 68.5462 11.527 68.5462 11.577C68.5462 11.627 68.5379 11.6687 68.5212 11.702H68.7712C68.7712 11.7187 68.7629 11.7353 68.7462 11.752C68.7462 11.7687 68.7462 11.7937 68.7462 11.827H69.4462C69.4462 11.877 69.4379 11.9187 69.4212 11.952H68.5962ZM68.9462 13.327H67.4462C67.4295 13.3937 67.4129 13.452 67.3962 13.502C67.3795 13.552 67.3629 13.6103 67.3462 13.677H70.6212V13.327H70.5212V13.077H69.0212L68.9462 13.327Z" fill="#282828"/>
<path d="M59.3818 8.952H58.5068V9.452H58.7568V9.702H57.1818V9.827H57.4318V10.202H57.8068V10.327H57.5568V10.577H58.7068V10.827H58.8818V11.202H58.7818V11.577H59.0068V12.077H58.3568V12.452H60.5068V12.827H59.4318V13.202H58.5068V13.702H58.8068V13.952H59.9068V14.077H58.5568V14.202H57.4568V14.577H56.3818V15.077H60.3568V15.452H58.8568V15.952H59.0568V16.202H58.5818V16.327H58.8568V16.577H58.9068V16.702H59.0068V16.827H58.5568V17.077H58.9068V17.327H58.8818V17.827H58.5318V17.952H58.8818V18.327H57.8818V18.577H58.9068C58.8735 18.8103 58.7735 18.977 58.6068 19.077H58.4818C58.3985 19.1437 58.2735 19.177 58.1068 19.177H53.2068C53.0568 19.177 52.9402 19.1437 52.8568 19.077H52.9818C52.8152 18.977 52.7152 18.8103 52.6818 18.577H51.6318V18.327H52.6318V17.952H52.2818V17.827H52.6318V17.327H52.6568V17.077H52.3068V16.827H52.7568V16.702H52.6568V16.577H52.6068V16.327H52.3318V16.202H52.8068V15.952H52.6068V15.452H54.1068V15.077H50.1318V14.577H51.2068V14.202H52.3068V14.077H53.6568V13.952H52.5568V13.702H52.2568V13.202H53.1818V12.827H54.2568V12.452H51.8318L51.5568 12.827H51.6318L51.3568 13.202H50.5818L50.2068 13.702H50.7818L50.6068 13.952H51.9818L51.8818 14.077H47.9568L47.8568 14.202H47.3818L47.1068 14.577H49.2318L48.8568 15.077H49.7318L49.4568 15.452H49.8068L49.4318 15.952H49.1818L49.0068 16.202H49.1568L49.0818 16.327H48.7318L48.5318 16.577H49.2568L49.1818 16.702H48.7068L48.4068 17.077H48.5318L48.3318 17.327H48.1068L47.7318 17.827H48.0318L47.9318 17.952H47.9818L47.7068 18.327H47.9568L47.7568 18.577H47.4318L47.4068 18.602C47.3402 18.702 47.2652 18.7937 47.1818 18.877C47.1152 18.9603 47.0235 19.027 46.9068 19.077H46.8318C46.7652 19.0937 46.6902 19.1187 46.6068 19.152C46.5235 19.1687 46.4235 19.177 46.3068 19.177H41.9818C41.8318 19.177 41.7152 19.1437 41.6318 19.077H41.7068C41.5235 18.977 41.4152 18.8103 41.3818 18.577H41.7318V18.327H41.4818V17.952H41.4318V17.827H41.1318V17.327H41.3818V17.077H41.2818V16.702H41.7568V16.577H41.0318V16.327H41.3818V16.202H41.2318V15.952H41.4818V15.452H41.1318V15.077H40.2568V14.577H38.1318V14.202H38.6068V14.077H42.5568V13.952H41.1568V13.702H40.6068V13.202H41.3818V12.827H41.3068V12.452H43.1318V12.077H41.5318V11.577H41.2818V11.202H41.3818V10.827H41.2068V10.577H40.0568V10.327H40.3068V10.202H39.9318V9.827H42.0568V9.702H41.0068V9.452H41.4318V8.952H41.3818V8.827H42.7068V8.577H40.7318V8.202H45.2068V7.827H43.7818V7.702H41.8318V7.327H44.8318V7.077H40.1068V6.827H41.4818V6.577H41.5318V6.327H41.3818V5.952H41.2318V5.577H41.4068V5.202H41.2318V4.952H41.3818V4.452H41.3318V4.202H41.4818V3.827H41.0568V3.577H41.1318V3.077H41.3818V2.952H41.2318V2.702H41.3068V2.327H41.6568C41.6902 2.11034 41.7735 1.94367 41.9068 1.827H41.8068C41.9402 1.727 42.0818 1.677 42.2318 1.677H47.1318C47.2985 1.677 47.4402 1.727 47.5568 1.827H47.6568C47.8235 1.96034 47.9068 2.127 47.9068 2.327H47.5568V2.702H47.4818V2.952H47.6318V3.077H47.3818V3.577H47.3068V3.827H47.7318V4.202H47.5818V4.452H47.6318V4.952H47.4818V5.202H47.6568V5.577H47.4818V5.952H47.6318V6.327H47.7818V6.577H47.7318V6.827H46.3568V7.077H50.8568L51.0318 6.827H49.5818L49.7568 6.577H49.5318L49.7068 6.327H50.1068L50.3568 5.952H50.1068L50.3818 5.577H50.6818L50.9318 5.202H50.7818L50.9568 4.952H51.0568L51.3068 4.577H51.2818L51.3568 4.452H51.3068L51.4818 4.202H51.1068L51.3568 3.827H52.0818L52.2568 3.577H51.8568L52.2068 3.077H52.2318L52.3318 2.952H51.8818L52.0568 2.702H52.5318L52.8318 2.252C52.8985 2.16867 52.9652 2.09367 53.0318 2.027C53.0985 1.94367 53.1735 1.877 53.2568 1.827H52.8318C53.0152 1.727 53.2235 1.677 53.4568 1.677H57.7818C57.9485 1.677 58.0902 1.727 58.2068 1.827H58.6068C58.7735 1.96034 58.8568 2.127 58.8568 2.327V2.702H58.3818V2.952H58.8318V3.077H58.7818V3.577H59.1818V3.827H58.4568V4.202H58.8318V4.452H58.8818V4.577H58.9068V4.952H58.8068V5.202H58.9568V5.577H58.6568V5.952H58.9068V6.327H58.5068V6.577H58.7318V6.827H60.1568V7.077H60.7818V7.327H57.3818V7.702H59.9318V7.827H60.1318V8.202H62.6068V8.577H59.9568V8.827H59.3818V8.952ZM51.4818 7.077H51.0818V7.327H51.3068L51.4818 7.077ZM46.9818 8.202V8.577H48.9568V8.827H49.4568L49.6318 8.577H52.2818L52.5318 8.202H46.9818ZM47.9068 8.952H48.8068L48.8818 8.827H47.6318V8.952H47.6818V9.302L47.9068 8.952ZM47.6568 9.702L47.8318 9.452H47.2568V9.702H47.6568ZM52.7568 12.077V11.577H52.7068L52.3318 12.077H52.7568Z" fill="#282828"/>
<path d="M41.0362 3.952H36.3862V4.452H38.1612V4.827H40.0862V5.202H40.0362V5.577H40.7612V6.077H38.0362V6.202H37.5112V6.377C37.5112 6.49367 37.4862 6.602 37.4362 6.702H39.2112C39.0946 6.93534 38.9029 7.052 38.6362 7.052H34.4862V7.077H34.7362V7.577H34.7862V8.077H34.6612V8.577H34.3362V8.952H35.5862V9.202H34.5362V9.577H33.9862V10.077H34.9362V10.327H34.7612V10.827H34.5862V11.327H34.2862V11.827H34.0112V12.202H34.9362V12.577H34.5612V13.077H34.7112V13.202H34.8862V13.452H36.1362V13.827H35.2862V14.327H35.6612V14.827H34.6112V15.327H35.0362V15.577H35.2112V15.952H35.6112V16.452H35.4612V16.827H34.8112V17.202H34.7362V17.452H34.7112V17.827H34.9862V18.202H34.7612V18.502C34.7612 18.5853 34.7529 18.652 34.7362 18.702H34.4862C34.4362 18.8687 34.3446 18.9937 34.2112 19.077H34.2612C34.1779 19.1437 34.0612 19.177 33.9112 19.177H28.9112C28.7779 19.177 28.6529 19.1437 28.5362 19.077H28.4862C28.3696 18.9937 28.2779 18.8687 28.2112 18.702H28.4362C28.4196 18.652 28.4112 18.5853 28.4112 18.502V18.202H28.6362V17.827H28.3612V17.452H28.3862V17.202H28.4612V16.827H29.1112V16.452H29.2612V15.952H28.8612V15.577H28.6862V15.327H28.2612V14.827H29.3112V14.327H28.9362V13.827H29.7862V13.452H28.5362V13.202H28.3612V13.077H28.2112V12.577H28.5862V12.202H27.6612V11.827H27.9362V11.327H28.2362V10.827H28.4112V10.327H28.5862V10.077H27.6362V9.577H28.1862V9.202H29.2362V8.952H27.9862V8.577H28.3112V8.077H28.4362V7.577H28.3862V7.077H28.1362V7.052H23.9862C23.7362 7.052 23.5362 6.93534 23.3862 6.702H21.6112C21.5946 6.652 21.5779 6.602 21.5612 6.552C21.5279 6.502 21.5112 6.44367 21.5112 6.377V6.202H22.0362V6.077H24.7612V5.577H24.0362V5.202H24.0862V4.827H22.1612V4.452H20.3862V3.952H25.0362V3.577H22.4362V3.077H22.9362V2.577H23.5862V2.452H23.9612V2.352C23.9612 2.18534 24.0112 2.052 24.1112 1.952H23.5612C23.6946 1.76867 23.8779 1.677 24.1112 1.677H38.7612C38.9946 1.677 39.1779 1.76867 39.3112 1.952H39.8362C39.9196 2.06867 39.9612 2.202 39.9612 2.352V2.452H39.5862V2.577H38.9362V3.077H38.4362V3.577H41.0362V3.952Z" fill="#282828"/>
<path d="M26.075 13.202H20.6V13.452H25.025V13.952H23.075V14.077H21.125V14.452H19.85V14.827H19.3V15.202H16.675V15.702H20.6V16.202H18.6V16.452H20.35V16.702H21.4V17.077H21.775V17.452H22.125V17.702H22.15V18.202H22.675V18.327H22.4V18.452H21.775V18.577H20.325L20.25 18.827H19.475C19.4083 18.9437 19.3333 19.027 19.25 19.077H20.175C20.0917 19.1437 19.975 19.177 19.825 19.177H15.3C15.15 19.177 15.0333 19.1437 14.95 19.077H14C13.9167 19.027 13.8417 18.9437 13.775 18.827H14.525C14.475 18.7437 14.45 18.6603 14.45 18.577H15.9V18.452H16.525V18.327H16.8V18.202H16.275V17.702H16.25V17.452H15.9V17.077H15.525V16.702H14.475V16.452H12.725V16.202H14.725V15.702H5.875V16.202H9.45V16.452H8.925V17.077H9.025V17.452H8.55V17.702H8.375V18.202H8.45V18.327H10.3V18.452H8.75V18.577H9.65C9.65 18.6603 9.625 18.7437 9.575 18.827H8.2C8.15 18.9437 8.06667 19.027 7.95 19.077H7.8C7.71667 19.1437 7.59167 19.177 7.425 19.177H2.9C2.75 19.177 2.63333 19.1437 2.55 19.077H2.725C2.675 19.0437 2.625 19.0103 2.575 18.977C2.54167 18.927 2.50833 18.877 2.475 18.827H3.875C3.825 18.7437 3.8 18.6603 3.8 18.577H2.875V18.452H4.425V18.327H2.575V18.202H2.5V17.702H2.675V17.452H3.15V17.077H3.05V16.452H3.575V16.202H0V15.702H5.4V15.202H0.475V14.827H0.35V14.452H2.4V14.077H3.125V13.952H1.525V13.452H5.025V13.202H7.475L7.4 13.077H2.95V12.952H3.775V12.827H3.15V12.327H3.175V12.077H3.75V11.702H3.625V11.202H2.95V11.077H0.7V10.827H2.65V10.702H2.575V10.452H3.675V10.202H4.275V9.827H0.325V9.327H3.475V9.077H0.675V8.702H3.575V8.452H3.225V8.202H2.275V8.077H2.75V7.702H5.625V7.327H5.2V7.077H2.825V6.952H2.7V6.577H3.875V6.077H1.275V5.827H2.175V5.702H2.425V5.452H1.85V5.077H4.1V4.702H2.95V4.202H4.85V4.077H4.25V3.577H6.475V3.202H1.25V2.827H6.8V2.452H4.35V2.202H2.475C2.49167 2.11867 2.51667 2.052 2.55 2.002C2.6 1.93534 2.65 1.877 2.7 1.827H2.825C2.925 1.727 3.06667 1.677 3.25 1.677H7.2C7.43333 1.677 7.625 1.727 7.775 1.827H7.65C7.75 1.877 7.83333 1.93534 7.9 2.002C7.96667 2.06867 8.01667 2.13534 8.05 2.202H9.95L10.05 2.352L10.1 2.452H12.575L12.8 2.827H7.25L7.475 3.202H12.675L12.9 3.577H10.7L11 4.077H11.6L11.675 4.202H9.775L10.075 4.702H11.2L11.425 5.077H9.2L9.425 5.452H10L10.15 5.702H9.9L9.975 5.827H9.075L9.225 6.077H11.825L12.125 6.577H10.95L11.175 6.952H11.3L11.375 7.077H13.225L13.3 6.952H12.625L12.85 6.577H13.675L13.975 6.077H13.525L13.675 5.827H11.65L11.725 5.702H14.25L14.4 5.452H14.2L14.425 5.077H15.925L16.15 4.702H16.225L16.525 4.202H15.375L15.45 4.077H18.075L18.375 3.577H18.225L18.45 3.202H14.6L14.825 2.827H18.525L18.75 2.452H16.025L16.075 2.352C16.1083 2.28534 16.1417 2.23534 16.175 2.202H16.225C16.275 2.13534 16.3333 2.06867 16.4 2.002C16.4667 1.93534 16.5417 1.877 16.625 1.827H16.575C16.725 1.727 16.9167 1.677 17.15 1.677H21.1C21.2667 1.677 21.4083 1.727 21.525 1.827H21.6C21.65 1.877 21.6917 1.93534 21.725 2.002C21.775 2.052 21.8083 2.11867 21.825 2.202H21.775V2.452H24.525V2.827H20.825V3.202H24.675V3.577H24.825V4.077H22.2V4.202H23.35V4.702H23.275V5.077H21.775V5.452H21.975V5.702H19.45V5.827H21.475V6.077H21.925V6.577H21.125V6.952H21.775V7.077H22.95V7.327H20.375V7.702H22.225V8.077H21.775V8.202H21.875V8.452H22.225V8.702H19.325V9.077H22.125V9.327H18.975V9.827H22.925V10.202H22.325V10.452H21.225V10.702H21.3V10.827H19.35V11.077H21.6V11.202H22.275V11.702H21.7V12.077H21.275V12.327H21.775V12.827H22V12.952H23.075V13.077H26.075V13.202ZM14.375 7.077H13.75L13.9 7.327H14.225L14.375 7.077ZM11.425 8.077L11.5 8.202H12.475L12.55 8.352L12.65 8.202H12.55L12.625 8.077H13.05L13.275 7.702H11.7L11.925 8.077H11.425ZM15.125 12.077H15.825V11.702H15.35L15.125 12.077ZM9.025 12.827H9.65V12.952H8.825V13.077H10.525L10.45 12.952H10.05L9.95 12.827H9.725L9.425 12.327H9.475L9.325 12.077H9.05V12.327H9.025V12.827ZM20.2 13.202V13.077H17.2V12.952H16.125V12.827H15.9V12.327H15.5L15.175 12.827H15.425L15.35 12.952H15.75L15.675 13.077H13.625V13.202H10.9V13.452H7.4V13.952H9V14.077H8.275V14.452H6.225V14.827H6.35V15.202H13.425V14.827H13.975V14.452H11.875C11.825 14.5187 11.775 14.5853 11.725 14.652C11.675 14.7187 11.6083 14.777 11.525 14.827H11.45C11.3 14.927 11.1333 14.977 10.95 14.977H9.2C9 14.977 8.825 14.927 8.675 14.827H8.75C8.68333 14.777 8.61667 14.7187 8.55 14.652C8.5 14.5853 8.45 14.5187 8.4 14.452H10.975L10.9 14.352L10.725 14.077H9.825L9.75 13.952H11.5L11.175 13.452H14.1L13.95 13.202H20.2ZM19.15 13.952V13.452H15.875L15.575 13.952H13.85L13.775 14.077H14.675L14.5 14.352L14.425 14.452H15.25V14.077H17.2V13.952H19.15Z" fill="#282828"/>
<path d="M93.9067 8L95.924 11.3537L97.9669 8H99.814L96.8008 12.5454L99.9077 17.21H98.0861L95.9581 13.7541L93.8301 17.21H92L95.0984 12.5454L92.0936 8H93.9067Z" fill="#A8A8A8"/>
<path fill-rule="evenodd" clip-rule="evenodd" d="M131.2 2.02704H111V22.227H119.894V11.9762H122.306V22.227H131.2V2.02704Z" fill="#282828"/>
<path fill-rule="evenodd" clip-rule="evenodd" d="M139.58 2.68921H145.216V9.04948H143.69V4.02495H141.107V9.04948H139.58V2.68921Z" fill="#282828"/>
<path fill-rule="evenodd" clip-rule="evenodd" d="M148.247 5.0552H151.554C151.377 4.25381 150.829 3.83395 149.952 3.83395C149.01 3.83395 148.425 4.25381 148.247 5.0552ZM149.939 2.56158C151.783 2.56158 153.055 3.78284 153.055 5.57673C153.055 5.79301 153.03 6.03422 152.992 6.26341H148.196C148.323 7.34479 149.01 7.84115 149.964 7.84115C150.816 7.84115 151.44 7.45928 151.606 6.88685L153.017 7.14155C152.737 8.42617 151.466 9.17689 149.964 9.17689C147.891 9.17689 146.644 7.79014 146.644 5.89468C146.644 3.97394 148.005 2.56158 149.939 2.56158Z" fill="#282828"/>
<path fill-rule="evenodd" clip-rule="evenodd" d="M156.061 5.86917C156.061 7.01414 156.761 7.77723 157.817 7.77723C158.873 7.77723 159.572 7.01414 159.572 5.86917C159.572 4.72444 158.873 3.96114 157.817 3.96114C156.761 3.96114 156.061 4.72444 156.061 5.86917ZM155.934 2.68921L156.01 3.46499C156.519 2.89245 157.219 2.56158 158.045 2.56158C159.814 2.56158 161.162 3.96114 161.162 5.86917C161.162 7.77723 159.814 9.17689 158.045 9.17689C157.245 9.17689 156.57 8.8586 156.061 8.3246V11.848H154.535V2.68921H155.934Z" fill="#282828"/>
<path fill-rule="evenodd" clip-rule="evenodd" d="M162.591 2.68921H164.155L166.178 5.44933L168.176 2.68921H169.74V9.04948H168.277V4.74971L166.331 7.43411H166L164.053 4.77533V9.04948H162.591V2.68921Z" fill="#282828"/>
<path fill-rule="evenodd" clip-rule="evenodd" d="M174.463 7.77723C175.302 7.77723 175.849 7.31962 176.015 6.61991L177.477 6.87415C177.261 8.18427 176.04 9.17689 174.45 9.17689C172.555 9.17689 171.168 7.77723 171.168 5.88222C171.168 3.96114 172.568 2.56158 174.463 2.56158C176.015 2.56158 177.147 3.46499 177.44 4.82623L175.951 5.08037C175.785 4.38076 175.239 3.96114 174.488 3.96114C173.471 3.96114 172.758 4.69916 172.758 5.88222C172.758 7.03953 173.445 7.77723 174.463 7.77723Z" fill="#282828"/>
<path fill-rule="evenodd" clip-rule="evenodd" d="M180.267 2.68921V5.02992H180.955L182.812 2.68921H184.632L182.164 5.67853L184.758 9.04948H182.914L180.942 6.50543H180.267V9.04948H178.741V2.68921H180.267Z" fill="#282828"/>
<path fill-rule="evenodd" clip-rule="evenodd" d="M185.779 2.68921H187.254V6.87415L189.989 2.68921H191.465V9.04948H189.989V4.86431L187.254 9.04948H185.779V2.68921Z" fill="#282828"/>
<path fill-rule="evenodd" clip-rule="evenodd" d="M198.363 0C198.347 1.11486 197.508 1.86209 196.277 1.86209C195.046 1.86209 194.207 1.11486 194.191 0H195.539C195.542 0.478393 195.821 0.717356 196.264 0.717356C196.72 0.717356 196.999 0.478393 197.015 0H198.363ZM193.377 2.68922H194.852V6.87416L197.587 2.68922H199.063V9.04949H197.587V4.86432L194.852 9.04949H193.377V2.68922Z" fill="#282828"/>
<path fill-rule="evenodd" clip-rule="evenodd" d="M139.58 15.8661H145.216V22.2264H143.69V17.202H141.107V22.2264H139.58V15.8661Z" fill="#282828"/>
<path fill-rule="evenodd" clip-rule="evenodd" d="M148.234 19.0465C148.234 20.1912 148.947 20.9545 150.015 20.9545C151.084 20.9545 151.796 20.1912 151.796 19.0465C151.796 17.9015 151.084 17.1385 150.015 17.1385C148.947 17.1385 148.234 17.9015 148.234 19.0465ZM153.386 19.0465C153.386 20.9545 151.961 22.354 150.015 22.354C148.068 22.354 146.644 20.9545 146.644 19.0465C146.644 17.1385 148.068 15.739 150.015 15.739C151.961 15.739 153.386 17.1385 153.386 19.0465Z" fill="#282828"/>
<path fill-rule="evenodd" clip-rule="evenodd" d="M154.344 20.9545C154.942 20.9545 155.133 20.7 155.234 18.0543L155.324 15.8661H160.272V22.2264H158.746V17.202H156.799L156.748 18.3849C156.622 21.3995 156.113 22.3541 154.573 22.3541C154.306 22.3541 154.14 22.3158 153.924 22.2518L154.103 20.9292C154.179 20.9419 154.242 20.9545 154.344 20.9545Z" fill="#282828"/>
<path fill-rule="evenodd" clip-rule="evenodd" d="M162.183 15.8661H163.659V20.0515L166.394 15.8661H167.869V22.2264H166.394V18.0415L163.659 22.2264H162.183V15.8661Z" fill="#282828"/>
<path fill-rule="evenodd" clip-rule="evenodd" d="M171.117 17.202H169.082V15.8661H174.679V17.202H172.643V22.2264H171.117V17.202Z" fill="#282828"/>
<path fill-rule="evenodd" clip-rule="evenodd" d="M177.009 18.2323H180.316C180.139 17.4312 179.591 17.0111 178.714 17.0111C177.773 17.0111 177.188 17.4312 177.009 18.2323ZM178.701 15.739C180.546 15.739 181.818 16.96 181.818 18.7538C181.818 18.97 181.792 19.2116 181.754 19.4407H176.959C177.086 20.5218 177.773 21.0184 178.727 21.0184C179.579 21.0184 180.203 20.6364 180.368 20.0639L181.78 20.3187C181.499 21.6033 180.227 22.354 178.727 22.354C176.653 22.354 175.407 20.9673 175.407 19.0718C175.407 17.1509 176.767 15.739 178.701 15.739Z" fill="#282828"/>
<path fill-rule="evenodd" clip-rule="evenodd" d="M185.472 17.8123L186.744 15.8661H188.436L186.312 19.0084L188.576 22.2264H186.782L185.294 20.1277L183.971 22.2264H182.329L184.442 18.9192L182.279 15.8661H184.098L185.472 17.8123Z" fill="#282828"/>
</svg>
