<svg width="326" height="329" viewBox="0 0 326 329" fill="none" xmlns="http://www.w3.org/2000/svg">
<g clip-path="url(#clip0_51_2732)">
<path d="M11.2414 0.863312H0V12.1165H11.2414V0.863312Z" fill="#282828"/>
<path d="M22.4828 0.863312H11.2414V12.1165H22.4828V0.863312Z" fill="#282828"/>
<path d="M33.7241 0.863312H22.4828V12.1165H33.7241V0.863312Z" fill="#282828"/>
<path d="M44.9655 0.863312H33.7241V12.1165H44.9655V0.863312Z" fill="#282828"/>
<path d="M56.2069 0.863312H44.9655V12.1165H56.2069V0.863312Z" fill="#282828"/>
<path d="M67.4483 0.863312H56.2069V12.1165H67.4483V0.863312Z" fill="#282828"/>
<path d="M78.6897 0.863312H67.4483V12.1165H78.6897V0.863312Z" fill="#282828"/>
<path d="M101.172 0.863312H89.931V12.1165H101.172V0.863312Z" fill="#282828"/>
<path d="M123.655 0.863312H112.414V12.1165H123.655V0.863312Z" fill="#282828"/>
<path d="M157.379 0.863312H146.138V12.1165H157.379V0.863312Z" fill="#282828"/>
<path d="M168.621 0.863312H157.379V12.1165H168.621V0.863312Z" fill="#282828"/>
<path d="M191.103 0.863312H179.862V12.1165H191.103V0.863312Z" fill="#282828"/>
<path d="M202.345 0.863312H191.103V12.1165H202.345V0.863312Z" fill="#282828"/>
<path d="M213.586 0.863312H202.345V12.1165H213.586V0.863312Z" fill="#282828"/>
<path d="M224.828 0.863312H213.586V12.1165H224.828V0.863312Z" fill="#282828"/>
<path d="M236.069 0.863312H224.828V12.1165H236.069V0.863312Z" fill="#282828"/>
<path d="M258.552 0.863312H247.31V12.1165H258.552V0.863312Z" fill="#282828"/>
<path d="M269.793 0.863312H258.552V12.1165H269.793V0.863312Z" fill="#282828"/>
<path d="M281.034 0.863312H269.793V12.1165H281.034V0.863312Z" fill="#282828"/>
<path d="M292.276 0.863312H281.034V12.1165H292.276V0.863312Z" fill="#282828"/>
<path d="M303.517 0.863312H292.276V12.1165H303.517V0.863312Z" fill="#282828"/>
<path d="M314.759 0.863312H303.517V12.1165H314.759V0.863312Z" fill="#282828"/>
<path d="M326 0.863312H314.759V12.1165H326V0.863312Z" fill="#282828"/>
<path d="M11.2414 12.1165H0V23.3697H11.2414V12.1165Z" fill="#282828"/>
<path d="M78.6897 12.1165H67.4483V23.3697H78.6897V12.1165Z" fill="#282828"/>
<path d="M134.897 12.1165H123.655V23.3697H134.897V12.1165Z" fill="#282828"/>
<path d="M146.138 12.1165H134.897V23.3697H146.138V12.1165Z" fill="#282828"/>
<path d="M157.379 12.1165H146.138V23.3697H157.379V12.1165Z" fill="#282828"/>
<path d="M168.621 12.1165H157.379V23.3697H168.621V12.1165Z" fill="#282828"/>
<path d="M179.862 12.1165H168.621V23.3697H179.862V12.1165Z" fill="#282828"/>
<path d="M191.103 12.1165H179.862V23.3697H191.103V12.1165Z" fill="#282828"/>
<path d="M258.552 12.1165H247.31V23.3697H258.552V12.1165Z" fill="#282828"/>
<path d="M326 12.1165H314.759V23.3697H326V12.1165Z" fill="#282828"/>
<path d="M11.2414 23.3697H0V34.623H11.2414V23.3697Z" fill="#282828"/>
<path d="M33.7241 23.3697H22.4828V34.623H33.7241V23.3697Z" fill="#282828"/>
<path d="M44.9655 23.3697H33.7241V34.623H44.9655V23.3697Z" fill="#282828"/>
<path d="M56.2069 23.3697H44.9655V34.623H56.2069V23.3697Z" fill="#282828"/>
<path d="M78.6897 23.3697H67.4483V34.623H78.6897V23.3697Z" fill="#282828"/>
<path d="M101.172 23.3697H89.931V34.623H101.172V23.3697Z" fill="#282828"/>
<path d="M112.414 23.3697H101.172V34.623H112.414V23.3697Z" fill="#282828"/>
<path d="M134.897 23.3697H123.655V34.623H134.897V23.3697Z" fill="#282828"/>
<path d="M157.379 23.3697H146.138V34.623H157.379V23.3697Z" fill="#282828"/>
<path d="M168.621 23.3697H157.379V34.623H168.621V23.3697Z" fill="#282828"/>
<path d="M179.862 23.3697H168.621V34.623H179.862V23.3697Z" fill="#282828"/>
<path d="M191.103 23.3697H179.862V34.623H191.103V23.3697Z" fill="#282828"/>
<path d="M202.345 23.3697H191.103V34.623H202.345V23.3697Z" fill="#282828"/>
<path d="M213.586 23.3697H202.345V34.623H213.586V23.3697Z" fill="#282828"/>
<path d="M258.552 23.3697H247.31V34.623H258.552V23.3697Z" fill="#282828"/>
<path d="M281.034 23.3697H269.793V34.623H281.034V23.3697Z" fill="#282828"/>
<path d="M292.276 23.3697H281.034V34.623H292.276V23.3697Z" fill="#282828"/>
<path d="M303.517 23.3697H292.276V34.623H303.517V23.3697Z" fill="#282828"/>
<path d="M326 23.3697H314.759V34.623H326V23.3697Z" fill="#282828"/>
<path d="M11.2414 34.623H0V45.8762H11.2414V34.623Z" fill="#282828"/>
<path d="M33.7241 34.623H22.4828V45.8762H33.7241V34.623Z" fill="#282828"/>
<path d="M44.9655 34.623H33.7241V45.8762H44.9655V34.623Z" fill="#282828"/>
<path d="M56.2069 34.623H44.9655V45.8762H56.2069V34.623Z" fill="#282828"/>
<path d="M78.6897 34.623H67.4483V45.8762H78.6897V34.623Z" fill="#282828"/>
<path d="M101.172 34.623H89.931V45.8762H101.172V34.623Z" fill="#282828"/>
<path d="M157.379 34.623H146.138V45.8762H157.379V34.623Z" fill="#282828"/>
<path d="M168.621 34.623H157.379V45.8762H168.621V34.623Z" fill="#282828"/>
<path d="M179.862 34.623H168.621V45.8762H179.862V34.623Z" fill="#282828"/>
<path d="M191.103 34.623H179.862V45.8762H191.103V34.623Z" fill="#282828"/>
<path d="M224.828 34.623H213.586V45.8762H224.828V34.623Z" fill="#282828"/>
<path d="M236.069 34.623H224.828V45.8762H236.069V34.623Z" fill="#282828"/>
<path d="M258.552 34.623H247.31V45.8762H258.552V34.623Z" fill="#282828"/>
<path d="M281.034 34.623H269.793V45.8762H281.034V34.623Z" fill="#282828"/>
<path d="M292.276 34.623H281.034V45.8762H292.276V34.623Z" fill="#282828"/>
<path d="M303.517 34.623H292.276V45.8762H303.517V34.623Z" fill="#282828"/>
<path d="M326 34.623H314.759V45.8762H326V34.623Z" fill="#282828"/>
<path d="M11.2414 45.8762H0V57.1294H11.2414V45.8762Z" fill="#282828"/>
<path d="M33.7241 45.8762H22.4828V57.1294H33.7241V45.8762Z" fill="#282828"/>
<path d="M44.9655 45.8762H33.7241V57.1294H44.9655V45.8762Z" fill="#282828"/>
<path d="M56.2069 45.8762H44.9655V57.1294H56.2069V45.8762Z" fill="#282828"/>
<path d="M78.6897 45.8762H67.4483V57.1294H78.6897V45.8762Z" fill="#282828"/>
<path d="M101.172 45.8762H89.931V57.1294H101.172V45.8762Z" fill="#282828"/>
<path d="M123.655 45.8762H112.414V57.1294H123.655V45.8762Z" fill="#282828"/>
<path d="M134.897 45.8762H123.655V57.1294H134.897V45.8762Z" fill="#282828"/>
<path d="M146.138 45.8762H134.897V57.1294H146.138V45.8762Z" fill="#282828"/>
<path d="M168.621 45.8762H157.379V57.1294H168.621V45.8762Z" fill="#282828"/>
<path d="M179.862 45.8762H168.621V57.1294H179.862V45.8762Z" fill="#282828"/>
<path d="M213.586 45.8762H202.345V57.1294H213.586V45.8762Z" fill="#282828"/>
<path d="M224.828 45.8762H213.586V57.1294H224.828V45.8762Z" fill="#282828"/>
<path d="M258.552 45.8762H247.31V57.1294H258.552V45.8762Z" fill="#282828"/>
<path d="M281.034 45.8762H269.793V57.1294H281.034V45.8762Z" fill="#282828"/>
<path d="M292.276 45.8762H281.034V57.1294H292.276V45.8762Z" fill="#282828"/>
<path d="M303.517 45.8762H292.276V57.1294H303.517V45.8762Z" fill="#282828"/>
<path d="M326 45.8762H314.759V57.1294H326V45.8762Z" fill="#282828"/>
<path d="M11.2414 57.1294H0V68.3826H11.2414V57.1294Z" fill="#282828"/>
<path d="M78.6897 57.1294H67.4483V68.3826H78.6897V57.1294Z" fill="#282828"/>
<path d="M101.172 57.1294H89.931V68.3826H101.172V57.1294Z" fill="#282828"/>
<path d="M112.414 57.1294H101.172V68.3826H112.414V57.1294Z" fill="#282828"/>
<path d="M134.897 57.1294H123.655V68.3826H134.897V57.1294Z" fill="#282828"/>
<path d="M157.379 57.1294H146.138V68.3826H157.379V57.1294Z" fill="#282828"/>
<path d="M168.621 57.1294H157.379V68.3826H168.621V57.1294Z" fill="#282828"/>
<path d="M179.862 57.1294H168.621V68.3826H179.862V57.1294Z" fill="#282828"/>
<path d="M191.103 57.1294H179.862V68.3826H191.103V57.1294Z" fill="#282828"/>
<path d="M202.345 57.1294H191.103V68.3826H202.345V57.1294Z" fill="#282828"/>
<path d="M236.069 57.1294H224.828V68.3826H236.069V57.1294Z" fill="#282828"/>
<path d="M258.552 57.1294H247.31V68.3826H258.552V57.1294Z" fill="#282828"/>
<path d="M326 57.1294H314.759V68.3826H326V57.1294Z" fill="#282828"/>
<path d="M11.2414 68.3826H0V79.6358H11.2414V68.3826Z" fill="#282828"/>
<path d="M22.4828 68.3826H11.2414V79.6358H22.4828V68.3826Z" fill="#282828"/>
<path d="M33.7241 68.3826H22.4828V79.6358H33.7241V68.3826Z" fill="#282828"/>
<path d="M44.9655 68.3826H33.7241V79.6358H44.9655V68.3826Z" fill="#282828"/>
<path d="M56.2069 68.3826H44.9655V79.6358H56.2069V68.3826Z" fill="#282828"/>
<path d="M67.4483 68.3826H56.2069V79.6358H67.4483V68.3826Z" fill="#282828"/>
<path d="M78.6897 68.3826H67.4483V79.6358H78.6897V68.3826Z" fill="#282828"/>
<path d="M101.172 68.3826H89.931V79.6358H101.172V68.3826Z" fill="#282828"/>
<path d="M123.655 68.3826H112.414V79.6358H123.655V68.3826Z" fill="#282828"/>
<path d="M146.138 68.3826H134.897V79.6358H146.138V68.3826Z" fill="#282828"/>
<path d="M168.621 68.3826H157.379V79.6358H168.621V68.3826Z" fill="#282828"/>
<path d="M191.103 68.3826H179.862V79.6358H191.103V68.3826Z" fill="#282828"/>
<path d="M213.586 68.3826H202.345V79.6358H213.586V68.3826Z" fill="#282828"/>
<path d="M236.069 68.3826H224.828V79.6358H236.069V68.3826Z" fill="#282828"/>
<path d="M258.552 68.3826H247.31V79.6358H258.552V68.3826Z" fill="#282828"/>
<path d="M269.793 68.3826H258.552V79.6358H269.793V68.3826Z" fill="#282828"/>
<path d="M281.034 68.3826H269.793V79.6358H281.034V68.3826Z" fill="#282828"/>
<path d="M292.276 68.3826H281.034V79.6358H292.276V68.3826Z" fill="#282828"/>
<path d="M303.517 68.3826H292.276V79.6358H303.517V68.3826Z" fill="#282828"/>
<path d="M314.759 68.3826H303.517V79.6358H314.759V68.3826Z" fill="#282828"/>
<path d="M326 68.3826H314.759V79.6358H326V68.3826Z" fill="#282828"/>
<path d="M112.414 79.6358H101.172V90.889H112.414V79.6358Z" fill="#282828"/>
<path d="M123.655 79.6358H112.414V90.889H123.655V79.6358Z" fill="#282828"/>
<path d="M146.138 79.6358H134.897V90.889H146.138V79.6358Z" fill="#282828"/>
<path d="M157.379 79.6358H146.138V90.889H157.379V79.6358Z" fill="#282828"/>
<path d="M179.862 79.6358H168.621V90.889H179.862V79.6358Z" fill="#282828"/>
<path d="M191.103 79.6358H179.862V90.889H191.103V79.6358Z" fill="#282828"/>
<path d="M202.345 79.6358H191.103V90.889H202.345V79.6358Z" fill="#282828"/>
<path d="M213.586 79.6358H202.345V90.889H213.586V79.6358Z" fill="#282828"/>
<path d="M236.069 79.6358H224.828V90.889H236.069V79.6358Z" fill="#282828"/>
<path d="M33.7241 90.889H22.4828V102.142H33.7241V90.889Z" fill="#282828"/>
<path d="M44.9655 90.889H33.7241V102.142H44.9655V90.889Z" fill="#282828"/>
<path d="M56.2069 90.889H44.9655V102.142H56.2069V90.889Z" fill="#282828"/>
<path d="M67.4483 90.889H56.2069V102.142H67.4483V90.889Z" fill="#282828"/>
<path d="M78.6897 90.889H67.4483V102.142H78.6897V90.889Z" fill="#282828"/>
<path d="M89.931 90.889H78.6897V102.142H89.931V90.889Z" fill="#282828"/>
<path d="M134.897 90.889H123.655V102.142H134.897V90.889Z" fill="#282828"/>
<path d="M146.138 90.889H134.897V102.142H146.138V90.889Z" fill="#282828"/>
<path d="M157.379 90.889H146.138V102.142H157.379V90.889Z" fill="#282828"/>
<path d="M191.103 90.889H179.862V102.142H191.103V90.889Z" fill="#282828"/>
<path d="M202.345 90.889H191.103V102.142H202.345V90.889Z" fill="#282828"/>
<path d="M213.586 90.889H202.345V102.142H213.586V90.889Z" fill="#282828"/>
<path d="M247.31 90.889H236.069V102.142H247.31V90.889Z" fill="#282828"/>
<path d="M269.793 90.889H258.552V102.142H269.793V90.889Z" fill="#282828"/>
<path d="M281.034 90.889H269.793V102.142H281.034V90.889Z" fill="#282828"/>
<path d="M292.276 90.889H281.034V102.142H292.276V90.889Z" fill="#282828"/>
<path d="M303.517 90.889H292.276V102.142H303.517V90.889Z" fill="#282828"/>
<path d="M326 90.889H314.759V102.142H326V90.889Z" fill="#282828"/>
<path d="M22.4828 102.142H11.2414V113.395H22.4828V102.142Z" fill="#282828"/>
<path d="M33.7241 102.142H22.4828V113.395H33.7241V102.142Z" fill="#282828"/>
<path d="M44.9655 102.142H33.7241V113.395H44.9655V102.142Z" fill="#282828"/>
<path d="M67.4483 102.142H56.2069V113.395H67.4483V102.142Z" fill="#282828"/>
<path d="M89.931 102.142H78.6897V113.395H89.931V102.142Z" fill="#282828"/>
<path d="M112.414 102.142H101.172V113.395H112.414V102.142Z" fill="#282828"/>
<path d="M123.655 102.142H112.414V113.395H123.655V102.142Z" fill="#282828"/>
<path d="M157.379 102.142H146.138V113.395H157.379V102.142Z" fill="#282828"/>
<path d="M179.862 102.142H168.621V113.395H179.862V102.142Z" fill="#282828"/>
<path d="M191.103 102.142H179.862V113.395H191.103V102.142Z" fill="#282828"/>
<path d="M213.586 102.142H202.345V113.395H213.586V102.142Z" fill="#282828"/>
<path d="M224.828 102.142H213.586V113.395H224.828V102.142Z" fill="#282828"/>
<path d="M236.069 102.142H224.828V113.395H236.069V102.142Z" fill="#282828"/>
<path d="M247.31 102.142H236.069V113.395H247.31V102.142Z" fill="#282828"/>
<path d="M269.793 102.142H258.552V113.395H269.793V102.142Z" fill="#282828"/>
<path d="M303.517 102.142H292.276V113.395H303.517V102.142Z" fill="#282828"/>
<path d="M314.759 102.142H303.517V113.395H314.759V102.142Z" fill="#282828"/>
<path d="M326 102.142H314.759V113.395H326V102.142Z" fill="#282828"/>
<path d="M11.2414 113.395H0V124.649H11.2414V113.395Z" fill="#282828"/>
<path d="M33.7241 113.395H22.4828V124.649H33.7241V113.395Z" fill="#282828"/>
<path d="M67.4483 113.395H56.2069V124.649H67.4483V113.395Z" fill="#282828"/>
<path d="M78.6897 113.395H67.4483V124.649H78.6897V113.395Z" fill="#282828"/>
<path d="M101.172 113.395H89.931V124.649H101.172V113.395Z" fill="#282828"/>
<path d="M123.655 113.395H112.414V124.649H123.655V113.395Z" fill="#282828"/>
<path d="M168.621 113.395H157.379V124.649H168.621V113.395Z" fill="#282828"/>
<path d="M191.103 113.395H179.862V124.649H191.103V113.395Z" fill="#282828"/>
<path d="M202.345 113.395H191.103V124.649H202.345V113.395Z" fill="#282828"/>
<path d="M258.552 113.395H247.31V124.649H258.552V113.395Z" fill="#282828"/>
<path d="M269.793 113.395H258.552V124.649H269.793V113.395Z" fill="#282828"/>
<path d="M314.759 113.395H303.517V124.649H314.759V113.395Z" fill="#282828"/>
<path d="M22.4828 124.649H11.2414V135.902H22.4828V124.649Z" fill="#282828"/>
<path d="M56.2069 124.649H44.9655V135.902H56.2069V124.649Z" fill="#282828"/>
<path d="M89.931 124.649H78.6897V135.902H89.931V124.649Z" fill="#282828"/>
<path d="M101.172 124.649H89.931V135.902H101.172V124.649Z" fill="#282828"/>
<path d="M112.414 124.649H101.172V135.902H112.414V124.649Z" fill="#282828"/>
<path d="M134.897 124.649H123.655V135.902H134.897V124.649Z" fill="#282828"/>
<path d="M146.138 124.649H134.897V135.902H146.138V124.649Z" fill="#282828"/>
<path d="M179.862 124.649H168.621V135.902H179.862V124.649Z" fill="#282828"/>
<path d="M202.345 124.649H191.103V135.902H202.345V124.649Z" fill="#282828"/>
<path d="M213.586 124.649H202.345V135.902H213.586V124.649Z" fill="#282828"/>
<path d="M236.069 124.649H224.828V135.902H236.069V124.649Z" fill="#282828"/>
<path d="M247.31 124.649H236.069V135.902H247.31V124.649Z" fill="#282828"/>
<path d="M281.034 124.649H269.793V135.902H281.034V124.649Z" fill="#282828"/>
<path d="M314.759 124.649H303.517V135.902H314.759V124.649Z" fill="#282828"/>
<path d="M326 124.649H314.759V135.902H326V124.649Z" fill="#282828"/>
<path d="M33.7241 135.902H22.4828V147.155H33.7241V135.902Z" fill="#282828"/>
<path d="M44.9655 135.902H33.7241V147.155H44.9655V135.902Z" fill="#282828"/>
<path d="M56.2069 135.902H44.9655V147.155H56.2069V135.902Z" fill="#282828"/>
<path d="M78.6897 135.902H67.4483V147.155H78.6897V135.902Z" fill="#282828"/>
<path d="M89.931 135.902H78.6897V147.155H89.931V135.902Z" fill="#282828"/>
<path d="M123.655 135.902H112.414V147.155H123.655V135.902Z" fill="#282828"/>
<path d="M157.379 135.902H146.138V147.155H157.379V135.902Z" fill="#282828"/>
<path d="M168.621 135.902H157.379V147.155H168.621V135.902Z" fill="#282828"/>
<path d="M179.862 135.902H168.621V147.155H179.862V135.902Z" fill="#282828"/>
<path d="M191.103 135.902H179.862V147.155H191.103V135.902Z" fill="#282828"/>
<path d="M236.069 135.902H224.828V147.155H236.069V135.902Z" fill="#282828"/>
<path d="M258.552 135.902H247.31V147.155H258.552V135.902Z" fill="#282828"/>
<path d="M269.793 135.902H258.552V147.155H269.793V135.902Z" fill="#282828"/>
<path d="M303.517 135.902H292.276V147.155H303.517V135.902Z" fill="#282828"/>
<path d="M326 135.902H314.759V147.155H326V135.902Z" fill="#282828"/>
<path d="M11.2414 147.155H0V158.408H11.2414V147.155Z" fill="#282828"/>
<path d="M22.4828 147.155H11.2414V158.408H22.4828V147.155Z" fill="#282828"/>
<path d="M33.7241 147.155H22.4828V158.408H33.7241V147.155Z" fill="#282828"/>
<path d="M112.414 147.155H101.172V158.408H112.414V147.155Z" fill="#282828"/>
<path d="M123.655 147.155H112.414V158.408H123.655V147.155Z" fill="#282828"/>
<path d="M134.897 147.155H123.655V158.408H134.897V147.155Z" fill="#282828"/>
<path d="M202.345 147.155H191.103V158.408H202.345V147.155Z" fill="#282828"/>
<path d="M213.586 147.155H202.345V158.408H213.586V147.155Z" fill="#282828"/>
<path d="M224.828 147.155H213.586V158.408H224.828V147.155Z" fill="#282828"/>
<path d="M292.276 147.155H281.034V158.408H292.276V147.155Z" fill="#282828"/>
<path d="M303.517 147.155H292.276V158.408H303.517V147.155Z" fill="#282828"/>
<path d="M326 147.155H314.759V158.408H326V147.155Z" fill="#282828"/>
<path d="M11.2414 158.408H0V169.661H11.2414V158.408Z" fill="#282828"/>
<path d="M22.4828 158.408H11.2414V169.661H22.4828V158.408Z" fill="#282828"/>
<path d="M44.9655 158.408H33.7241V169.661H44.9655V158.408Z" fill="#282828"/>
<path d="M78.6897 158.408H67.4483V169.661H78.6897V158.408Z" fill="#282828"/>
<path d="M89.931 158.408H78.6897V169.661H89.931V158.408Z" fill="#282828"/>
<path d="M112.414 158.408H101.172V169.661H112.414V158.408Z" fill="#282828"/>
<path d="M123.655 158.408H112.414V169.661H123.655V158.408Z" fill="#282828"/>
<path d="M146.138 158.408H134.897V169.661H146.138V158.408Z" fill="#282828"/>
<path d="M179.862 158.408H168.621V169.661H179.862V158.408Z" fill="#282828"/>
<path d="M202.345 158.408H191.103V169.661H202.345V158.408Z" fill="#282828"/>
<path d="M213.586 158.408H202.345V169.661H213.586V158.408Z" fill="#282828"/>
<path d="M236.069 158.408H224.828V169.661H236.069V158.408Z" fill="#282828"/>
<path d="M269.793 158.408H258.552V169.661H269.793V158.408Z" fill="#282828"/>
<path d="M292.276 158.408H281.034V169.661H292.276V158.408Z" fill="#282828"/>
<path d="M303.517 158.408H292.276V169.661H303.517V158.408Z" fill="#282828"/>
<path d="M314.759 158.408H303.517V169.661H314.759V158.408Z" fill="#282828"/>
<path d="M326 158.408H314.759V169.661H326V158.408Z" fill="#282828"/>
<path d="M11.2414 169.661H0V180.915H11.2414V169.661Z" fill="#282828"/>
<path d="M22.4828 169.661H11.2414V180.915H22.4828V169.661Z" fill="#282828"/>
<path d="M33.7241 169.661H22.4828V180.915H33.7241V169.661Z" fill="#282828"/>
<path d="M44.9655 169.661H33.7241V180.915H44.9655V169.661Z" fill="#282828"/>
<path d="M56.2069 169.661H44.9655V180.915H56.2069V169.661Z" fill="#282828"/>
<path d="M112.414 169.661H101.172V180.915H112.414V169.661Z" fill="#282828"/>
<path d="M123.655 169.661H112.414V180.915H123.655V169.661Z" fill="#282828"/>
<path d="M134.897 169.661H123.655V180.915H134.897V169.661Z" fill="#282828"/>
<path d="M146.138 169.661H134.897V180.915H146.138V169.661Z" fill="#282828"/>
<path d="M157.379 169.661H146.138V180.915H157.379V169.661Z" fill="#282828"/>
<path d="M202.345 169.661H191.103V180.915H202.345V169.661Z" fill="#282828"/>
<path d="M213.586 169.661H202.345V180.915H213.586V169.661Z" fill="#282828"/>
<path d="M224.828 169.661H213.586V180.915H224.828V169.661Z" fill="#282828"/>
<path d="M236.069 169.661H224.828V180.915H236.069V169.661Z" fill="#282828"/>
<path d="M247.31 169.661H236.069V180.915H247.31V169.661Z" fill="#282828"/>
<path d="M292.276 169.661H281.034V180.915H292.276V169.661Z" fill="#282828"/>
<path d="M303.517 169.661H292.276V180.915H303.517V169.661Z" fill="#282828"/>
<path d="M326 169.661H314.759V180.915H326V169.661Z" fill="#282828"/>
<path d="M22.4828 180.915H11.2414V192.168H22.4828V180.915Z" fill="#282828"/>
<path d="M56.2069 180.915H44.9655V192.168H56.2069V180.915Z" fill="#282828"/>
<path d="M78.6897 180.915H67.4483V192.168H78.6897V180.915Z" fill="#282828"/>
<path d="M89.931 180.915H78.6897V192.168H89.931V180.915Z" fill="#282828"/>
<path d="M101.172 180.915H89.931V192.168H101.172V180.915Z" fill="#282828"/>
<path d="M123.655 180.915H112.414V192.168H123.655V180.915Z" fill="#282828"/>
<path d="M157.379 180.915H146.138V192.168H157.379V180.915Z" fill="#282828"/>
<path d="M179.862 180.915H168.621V192.168H179.862V180.915Z" fill="#282828"/>
<path d="M191.103 180.915H179.862V192.168H191.103V180.915Z" fill="#282828"/>
<path d="M213.586 180.915H202.345V192.168H213.586V180.915Z" fill="#282828"/>
<path d="M247.31 180.915H236.069V192.168H247.31V180.915Z" fill="#282828"/>
<path d="M269.793 180.915H258.552V192.168H269.793V180.915Z" fill="#282828"/>
<path d="M326 180.915H314.759V192.168H326V180.915Z" fill="#282828"/>
<path d="M44.9655 192.168H33.7241V203.421H44.9655V192.168Z" fill="#282828"/>
<path d="M67.4483 192.168H56.2069V203.421H67.4483V192.168Z" fill="#282828"/>
<path d="M101.172 192.168H89.931V203.421H101.172V192.168Z" fill="#282828"/>
<path d="M123.655 192.168H112.414V203.421H123.655V192.168Z" fill="#282828"/>
<path d="M146.138 192.168H134.897V203.421H146.138V192.168Z" fill="#282828"/>
<path d="M168.621 192.168H157.379V203.421H168.621V192.168Z" fill="#282828"/>
<path d="M191.103 192.168H179.862V203.421H191.103V192.168Z" fill="#282828"/>
<path d="M202.345 192.168H191.103V203.421H202.345V192.168Z" fill="#282828"/>
<path d="M236.069 192.168H224.828V203.421H236.069V192.168Z" fill="#282828"/>
<path d="M281.034 192.168H269.793V203.421H281.034V192.168Z" fill="#282828"/>
<path d="M303.517 192.168H292.276V203.421H303.517V192.168Z" fill="#282828"/>
<path d="M326 192.168H314.759V203.421H326V192.168Z" fill="#282828"/>
<path d="M22.4828 203.421H11.2414V214.674H22.4828V203.421Z" fill="#282828"/>
<path d="M44.9655 203.421H33.7241V214.674H44.9655V203.421Z" fill="#282828"/>
<path d="M67.4483 203.421H56.2069V214.674H67.4483V203.421Z" fill="#282828"/>
<path d="M78.6897 203.421H67.4483V214.674H78.6897V203.421Z" fill="#282828"/>
<path d="M89.931 203.421H78.6897V214.674H89.931V203.421Z" fill="#282828"/>
<path d="M101.172 203.421H89.931V214.674H101.172V203.421Z" fill="#282828"/>
<path d="M146.138 203.421H134.897V214.674H146.138V203.421Z" fill="#282828"/>
<path d="M168.621 203.421H157.379V214.674H168.621V203.421Z" fill="#282828"/>
<path d="M191.103 203.421H179.862V214.674H191.103V203.421Z" fill="#282828"/>
<path d="M213.586 203.421H202.345V214.674H213.586V203.421Z" fill="#282828"/>
<path d="M236.069 203.421H224.828V214.674H236.069V203.421Z" fill="#282828"/>
<path d="M269.793 203.421H258.552V214.674H269.793V203.421Z" fill="#282828"/>
<path d="M281.034 203.421H269.793V214.674H281.034V203.421Z" fill="#282828"/>
<path d="M326 203.421H314.759V214.674H326V203.421Z" fill="#282828"/>
<path d="M11.2414 214.674H0V225.928H11.2414V214.674Z" fill="#282828"/>
<path d="M33.7241 214.674H22.4828V225.928H33.7241V214.674Z" fill="#282828"/>
<path d="M56.2069 214.674H44.9655V225.928H56.2069V214.674Z" fill="#282828"/>
<path d="M89.931 214.674H78.6897V225.928H89.931V214.674Z" fill="#282828"/>
<path d="M112.414 214.674H101.172V225.928H112.414V214.674Z" fill="#282828"/>
<path d="M146.138 214.674H134.897V225.928H146.138V214.674Z" fill="#282828"/>
<path d="M157.379 214.674H146.138V225.928H157.379V214.674Z" fill="#282828"/>
<path d="M191.103 214.674H179.862V225.928H191.103V214.674Z" fill="#282828"/>
<path d="M202.345 214.674H191.103V225.928H202.345V214.674Z" fill="#282828"/>
<path d="M224.828 214.674H213.586V225.928H224.828V214.674Z" fill="#282828"/>
<path d="M258.552 214.674H247.31V225.928H258.552V214.674Z" fill="#282828"/>
<path d="M269.793 214.674H258.552V225.928H269.793V214.674Z" fill="#282828"/>
<path d="M292.276 214.674H281.034V225.928H292.276V214.674Z" fill="#282828"/>
<path d="M303.517 214.674H292.276V225.928H303.517V214.674Z" fill="#282828"/>
<path d="M314.759 214.674H303.517V225.928H314.759V214.674Z" fill="#282828"/>
<path d="M326 214.674H314.759V225.928H326V214.674Z" fill="#282828"/>
<path d="M44.9655 225.928H33.7241V237.181H44.9655V225.928Z" fill="#282828"/>
<path d="M67.4483 225.928H56.2069V237.181H67.4483V225.928Z" fill="#282828"/>
<path d="M78.6897 225.928H67.4483V237.181H78.6897V225.928Z" fill="#282828"/>
<path d="M112.414 225.928H101.172V237.181H112.414V225.928Z" fill="#282828"/>
<path d="M123.655 225.928H112.414V237.181H123.655V225.928Z" fill="#282828"/>
<path d="M157.379 225.928H146.138V237.181H157.379V225.928Z" fill="#282828"/>
<path d="M179.862 225.928H168.621V237.181H179.862V225.928Z" fill="#282828"/>
<path d="M202.345 225.928H191.103V237.181H202.345V225.928Z" fill="#282828"/>
<path d="M236.069 225.928H224.828V237.181H236.069V225.928Z" fill="#282828"/>
<path d="M247.31 225.928H236.069V237.181H247.31V225.928Z" fill="#282828"/>
<path d="M258.552 225.928H247.31V237.181H258.552V225.928Z" fill="#282828"/>
<path d="M269.793 225.928H258.552V237.181H269.793V225.928Z" fill="#282828"/>
<path d="M281.034 225.928H269.793V237.181H281.034V225.928Z" fill="#282828"/>
<path d="M314.759 225.928H303.517V237.181H314.759V225.928Z" fill="#282828"/>
<path d="M112.414 237.181H101.172V248.434H112.414V237.181Z" fill="#282828"/>
<path d="M157.379 237.181H146.138V248.434H157.379V237.181Z" fill="#282828"/>
<path d="M191.103 237.181H179.862V248.434H191.103V237.181Z" fill="#282828"/>
<path d="M202.345 237.181H191.103V248.434H202.345V237.181Z" fill="#282828"/>
<path d="M236.069 237.181H224.828V248.434H236.069V237.181Z" fill="#282828"/>
<path d="M281.034 237.181H269.793V248.434H281.034V237.181Z" fill="#282828"/>
<path d="M314.759 237.181H303.517V248.434H314.759V237.181Z" fill="#282828"/>
<path d="M326 237.181H314.759V248.434H326V237.181Z" fill="#282828"/>
<path d="M11.2414 248.434H0V259.687H11.2414V248.434Z" fill="#282828"/>
<path d="M22.4828 248.434H11.2414V259.687H22.4828V248.434Z" fill="#282828"/>
<path d="M33.7241 248.434H22.4828V259.687H33.7241V248.434Z" fill="#282828"/>
<path d="M44.9655 248.434H33.7241V259.687H44.9655V248.434Z" fill="#282828"/>
<path d="M56.2069 248.434H44.9655V259.687H56.2069V248.434Z" fill="#282828"/>
<path d="M67.4483 248.434H56.2069V259.687H67.4483V248.434Z" fill="#282828"/>
<path d="M78.6897 248.434H67.4483V259.687H78.6897V248.434Z" fill="#282828"/>
<path d="M101.172 248.434H89.931V259.687H101.172V248.434Z" fill="#282828"/>
<path d="M112.414 248.434H101.172V259.687H112.414V248.434Z" fill="#282828"/>
<path d="M123.655 248.434H112.414V259.687H123.655V248.434Z" fill="#282828"/>
<path d="M134.897 248.434H123.655V259.687H134.897V248.434Z" fill="#282828"/>
<path d="M157.379 248.434H146.138V259.687H157.379V248.434Z" fill="#282828"/>
<path d="M168.621 248.434H157.379V259.687H168.621V248.434Z" fill="#282828"/>
<path d="M202.345 248.434H191.103V259.687H202.345V248.434Z" fill="#282828"/>
<path d="M213.586 248.434H202.345V259.687H213.586V248.434Z" fill="#282828"/>
<path d="M224.828 248.434H213.586V259.687H224.828V248.434Z" fill="#282828"/>
<path d="M236.069 248.434H224.828V259.687H236.069V248.434Z" fill="#282828"/>
<path d="M258.552 248.434H247.31V259.687H258.552V248.434Z" fill="#282828"/>
<path d="M281.034 248.434H269.793V259.687H281.034V248.434Z" fill="#282828"/>
<path d="M303.517 248.434H292.276V259.687H303.517V248.434Z" fill="#282828"/>
<path d="M11.2414 259.687H0V270.94H11.2414V259.687Z" fill="#282828"/>
<path d="M78.6897 259.687H67.4483V270.94H78.6897V259.687Z" fill="#282828"/>
<path d="M101.172 259.687H89.931V270.94H101.172V259.687Z" fill="#282828"/>
<path d="M112.414 259.687H101.172V270.94H112.414V259.687Z" fill="#282828"/>
<path d="M123.655 259.687H112.414V270.94H123.655V259.687Z" fill="#282828"/>
<path d="M157.379 259.687H146.138V270.94H157.379V259.687Z" fill="#282828"/>
<path d="M179.862 259.687H168.621V270.94H179.862V259.687Z" fill="#282828"/>
<path d="M213.586 259.687H202.345V270.94H213.586V259.687Z" fill="#282828"/>
<path d="M236.069 259.687H224.828V270.94H236.069V259.687Z" fill="#282828"/>
<path d="M281.034 259.687H269.793V270.94H281.034V259.687Z" fill="#282828"/>
<path d="M303.517 259.687H292.276V270.94H303.517V259.687Z" fill="#282828"/>
<path d="M326 259.687H314.759V270.94H326V259.687Z" fill="#282828"/>
<path d="M11.2414 270.94H0V282.194H11.2414V270.94Z" fill="#282828"/>
<path d="M33.7241 270.94H22.4828V282.194H33.7241V270.94Z" fill="#282828"/>
<path d="M44.9655 270.94H33.7241V282.194H44.9655V270.94Z" fill="#282828"/>
<path d="M56.2069 270.94H44.9655V282.194H56.2069V270.94Z" fill="#282828"/>
<path d="M78.6897 270.94H67.4483V282.194H78.6897V270.94Z" fill="#282828"/>
<path d="M101.172 270.94H89.931V282.194H101.172V270.94Z" fill="#282828"/>
<path d="M112.414 270.94H101.172V282.194H112.414V270.94Z" fill="#282828"/>
<path d="M134.897 270.94H123.655V282.194H134.897V270.94Z" fill="#282828"/>
<path d="M157.379 270.94H146.138V282.194H157.379V270.94Z" fill="#282828"/>
<path d="M202.345 270.94H191.103V282.194H202.345V270.94Z" fill="#282828"/>
<path d="M236.069 270.94H224.828V282.194H236.069V270.94Z" fill="#282828"/>
<path d="M247.31 270.94H236.069V282.194H247.31V270.94Z" fill="#282828"/>
<path d="M258.552 270.94H247.31V282.194H258.552V270.94Z" fill="#282828"/>
<path d="M269.793 270.94H258.552V282.194H269.793V270.94Z" fill="#282828"/>
<path d="M281.034 270.94H269.793V282.194H281.034V270.94Z" fill="#282828"/>
<path d="M303.517 270.94H292.276V282.194H303.517V270.94Z" fill="#282828"/>
<path d="M326 270.94H314.759V282.194H326V270.94Z" fill="#282828"/>
<path d="M11.2414 282.194H0V293.447H11.2414V282.194Z" fill="#282828"/>
<path d="M33.7241 282.194H22.4828V293.447H33.7241V282.194Z" fill="#282828"/>
<path d="M44.9655 282.194H33.7241V293.447H44.9655V282.194Z" fill="#282828"/>
<path d="M56.2069 282.194H44.9655V293.447H56.2069V282.194Z" fill="#282828"/>
<path d="M78.6897 282.194H67.4483V293.447H78.6897V282.194Z" fill="#282828"/>
<path d="M101.172 282.194H89.931V293.447H101.172V282.194Z" fill="#282828"/>
<path d="M134.897 282.194H123.655V293.447H134.897V282.194Z" fill="#282828"/>
<path d="M146.138 282.194H134.897V293.447H146.138V282.194Z" fill="#282828"/>
<path d="M168.621 282.194H157.379V293.447H168.621V282.194Z" fill="#282828"/>
<path d="M191.103 282.194H179.862V293.447H191.103V282.194Z" fill="#282828"/>
<path d="M247.31 282.194H236.069V293.447H247.31V282.194Z" fill="#282828"/>
<path d="M258.552 282.194H247.31V293.447H258.552V282.194Z" fill="#282828"/>
<path d="M292.276 282.194H281.034V293.447H292.276V282.194Z" fill="#282828"/>
<path d="M303.517 282.194H292.276V293.447H303.517V282.194Z" fill="#282828"/>
<path d="M314.759 282.194H303.517V293.447H314.759V282.194Z" fill="#282828"/>
<path d="M326 282.194H314.759V293.447H326V282.194Z" fill="#282828"/>
<path d="M11.2414 293.447H0V304.7H11.2414V293.447Z" fill="#282828"/>
<path d="M33.7241 293.447H22.4828V304.7H33.7241V293.447Z" fill="#282828"/>
<path d="M44.9655 293.447H33.7241V304.7H44.9655V293.447Z" fill="#282828"/>
<path d="M56.2069 293.447H44.9655V304.7H56.2069V293.447Z" fill="#282828"/>
<path d="M78.6897 293.447H67.4483V304.7H78.6897V293.447Z" fill="#282828"/>
<path d="M101.172 293.447H89.931V304.7H101.172V293.447Z" fill="#282828"/>
<path d="M146.138 293.447H134.897V304.7H146.138V293.447Z" fill="#282828"/>
<path d="M168.621 293.447H157.379V304.7H168.621V293.447Z" fill="#282828"/>
<path d="M191.103 293.447H179.862V304.7H191.103V293.447Z" fill="#282828"/>
<path d="M202.345 293.447H191.103V304.7H202.345V293.447Z" fill="#282828"/>
<path d="M213.586 293.447H202.345V304.7H213.586V293.447Z" fill="#282828"/>
<path d="M236.069 293.447H224.828V304.7H236.069V293.447Z" fill="#282828"/>
<path d="M247.31 293.447H236.069V304.7H247.31V293.447Z" fill="#282828"/>
<path d="M258.552 293.447H247.31V304.7H258.552V293.447Z" fill="#282828"/>
<path d="M281.034 293.447H269.793V304.7H281.034V293.447Z" fill="#282828"/>
<path d="M292.276 293.447H281.034V304.7H292.276V293.447Z" fill="#282828"/>
<path d="M303.517 293.447H292.276V304.7H303.517V293.447Z" fill="#282828"/>
<path d="M326 293.447H314.759V304.7H326V293.447Z" fill="#282828"/>
<path d="M11.2414 304.7H0V315.953H11.2414V304.7Z" fill="#282828"/>
<path d="M78.6897 304.7H67.4483V315.953H78.6897V304.7Z" fill="#282828"/>
<path d="M134.897 304.7H123.655V315.953H134.897V304.7Z" fill="#282828"/>
<path d="M179.862 304.7H168.621V315.953H179.862V304.7Z" fill="#282828"/>
<path d="M224.828 304.7H213.586V315.953H224.828V304.7Z" fill="#282828"/>
<path d="M236.069 304.7H224.828V315.953H236.069V304.7Z" fill="#282828"/>
<path d="M247.31 304.7H236.069V315.953H247.31V304.7Z" fill="#282828"/>
<path d="M269.793 304.7H258.552V315.953H269.793V304.7Z" fill="#282828"/>
<path d="M303.517 304.7H292.276V315.953H303.517V304.7Z" fill="#282828"/>
<path d="M314.759 304.7H303.517V315.953H314.759V304.7Z" fill="#282828"/>
<path d="M11.2414 315.953H0V327.206H11.2414V315.953Z" fill="#282828"/>
<path d="M22.4828 315.953H11.2414V327.206H22.4828V315.953Z" fill="#282828"/>
<path d="M33.7241 315.953H22.4828V327.206H33.7241V315.953Z" fill="#282828"/>
<path d="M44.9655 315.953H33.7241V327.206H44.9655V315.953Z" fill="#282828"/>
<path d="M56.2069 315.953H44.9655V327.206H56.2069V315.953Z" fill="#282828"/>
<path d="M67.4483 315.953H56.2069V327.206H67.4483V315.953Z" fill="#282828"/>
<path d="M78.6897 315.953H67.4483V327.206H78.6897V315.953Z" fill="#282828"/>
<path d="M112.414 315.953H101.172V327.206H112.414V315.953Z" fill="#282828"/>
<path d="M157.379 315.953H146.138V327.206H157.379V315.953Z" fill="#282828"/>
<path d="M202.345 315.953H191.103V327.206H202.345V315.953Z" fill="#282828"/>
<path d="M236.069 315.953H224.828V327.206H236.069V315.953Z" fill="#282828"/>
<path d="M247.31 315.953H236.069V327.206H247.31V315.953Z" fill="#282828"/>
<path d="M269.793 315.953H258.552V327.206H269.793V315.953Z" fill="#282828"/>
<path d="M281.034 315.953H269.793V327.206H281.034V315.953Z" fill="#282828"/>
</g>
<defs>
<clipPath id="clip0_51_2732">
<rect width="326" height="328.07" fill="white"/>
</clipPath>
</defs>
</svg>
